Format : AVI
Format/Info : Audio Video Interleave
File size : 677 MiB
Duration : 1h 22mn
Overall bit rate : 1 148 Kbps
Writing library : MPlayer

Video
ID : 0
Format : MPEG-4 Visual
Format profile : Advanced Simple@L5
Format settings, BVOP : Yes
Format settings, QPel : No
Format settings, GMC : No warppoints
Format settings, Matrix : Default (MPEG)
Codec ID : XVID
Codec ID/Hint : XviD
Duration : 1h 22mn
Bit rate : 1 008 Kbps
Width : 624 pixels
Height : 336 pixels
Display aspect ratio : 1.857
Frame rate : 23.976 fps
Color space : YUV
Chroma subsampling : 4:2:0
Bit depth : 8 bits
Scan type : Progressive
Bits/(Pixel*Frame) : 0.201
Stream size : 595 MiB (88%)
Writing library : XviD 1.2.1 (UTC 2008-12-04)

Audio
ID : 1
Format : MPEG Audio
Format version : Version 1
Format profile : Layer 3
Mode : Joint stereo
Codec ID : 55
Codec ID/Hint : MP3
Duration : 1h 22mn
Bit rate mode : Variable
Bit rate : 128 Kbps
Channel(s) : 2 channels
Sampling rate : 48.0 KHz
Stream size : 74.6 MiB (11%)
Alignment : Aligned on interleaves
Interleave, duration : 24 ms (0.58 video frame)
Interleave, preload duration : 127 ms



 
http://www.imdb.com/title/tt0377981/








Users: 5.7/10 (3,454 votes) 52 reviews | Critics: 132 reviews Metascore: 53/100 (based on 28 reviews from Metacritic.com)

The neighboring gardens of Montague and Capulet are at war, but the gnomes, Gnomeo and Juliet, are in love.
Director:
Kelly Asbury
Writers:
Rob Sprackling (story), John R. Smith (story), and 14 more credits »
Stars:
James McAvoy, Emily Blunt and Maggie Smith















Same again straightforward encode with syncfix ..Enjoy !



Greetz to Imagine ,Flawl3ss,DiLLoN,BDK,NOiR,TOXiCiNK,THC,Ez,Rx,Boobyblue,TaRiQ786,LKRG